<?xml version="1.0" encoding="UTF-8" standalone="no"?>
<!-- Created with Inkscape (http://www.inkscape.org/) -->

<svg
   width="950.323"
   height="220.52"
   viewBox="0 0 251.43958 58.346284"
   version="1.1"
   id="svg5"
   inkscape:version="1.2.2 (732a01da63, 2022-12-09)"
   sodipodi:docname="katsujs-logo.svg"
   xmlns:inkscape="http://www.inkscape.org/namespaces/inkscape"
   xmlns:sodipodi="http://sodipodi.sourceforge.net/DTD/sodipodi-0.dtd"
   xmlns="http://www.w3.org/2000/svg"
   xmlns:svg="http://www.w3.org/2000/svg">
  <sodipodi:namedview
     id="namedview7"
     pagecolor="#ffffff"
     bordercolor="#000000"
     borderopacity="0.25"
     inkscape:showpageshadow="2"
     inkscape:pageopacity="0.0"
     inkscape:pagecheckerboard="0"
     inkscape:deskcolor="#d1d1d1"
     inkscape:document-units="mm"
     showgrid="true"
     inkscape:zoom="4.2179991"
     inkscape:cx="861.66448"
     inkscape:cy="107.15981"
     inkscape:window-width="1920"
     inkscape:window-height="1017"
     inkscape:window-x="1931"
     inkscape:window-y="-8"
     inkscape:window-maximized="1"
     inkscape:current-layer="layer1"
     inkscape:lockguides="false">
    <inkscape:grid
       type="xygrid"
       id="grid3395"
       originx="0"
       originy="0" />
  </sodipodi:namedview>
  <defs
     id="defs2" />
  <g
     inkscape:label="Layer 1"
     inkscape:groupmode="layer"
     id="layer1">
    <path
       style="fill:#006799;stroke-width:0.239056"
       d="m 9.2594051,32.279369 v 19.843875 c 0,3.968775 6.6146249,3.968775 6.6146249,0 v -5.2917 l 15.34593,7.672965 c 4.32074,2.16037 8.195829,-2.107866 2.356857,-5.407393 L 19.294445,41.026333 34.317382,35.117468 c 4.059343,-1.596633 2.196239,-6.862488 -2.260132,-4.874543 l -16.18322,6.005219 v -3.968775 c 0,-3.968775 -6.6146249,-3.968775 -6.6146249,0 z"
       id="path2242"
       sodipodi:nodetypes="csscsscssccc" />
    <path
       id="path2352"
       style="fill:#006799;stroke-width:0.232808"
       d="m 48.995935,33.602294 -7.88877,17.198025 c -2.028541,3.968775 3.380901,6.614625 5.634835,2.64585 l 3.380902,-6.614625 h 10.142703 l 3.380901,6.614625 c 1.873455,3.665355 7.41068,1.225607 5.634835,-2.64585 L 61.392572,33.602294 c -2.320579,-5.059011 -10.060797,-5.092281 -12.396637,0 z m 7.888769,2.64585 c 0,0 2.628482,5.2917 1.126967,5.2917 h -5.634835 c -1.492988,0 1.126967,-5.2917 1.126967,-5.2917 0.364094,-1.045173 3.025845,-1.060213 3.380901,0 z"
       sodipodi:nodetypes="sccccsssssssss" />
    <path
       style="fill:#006799;stroke-width:0.26259"
       d="m 74.347314,29.633519 h 21.960554 c 3.968772,0 3.968772,6.614625 0,6.614625 h -7.672965 v 15.8751 c 0,3.942035 -6.614624,3.942896 -6.614624,0 v -15.8751 h -7.672965 c -3.968775,0 -3.968775,-6.614625 0,-6.614625 z"
       id="path2354"
       sodipodi:nodetypes="ssscsscss" />
    <path
       style="fill:#006799;stroke-width:0.219626"
       d="m 129.31385,32.279369 c 0,0 -6.56328,-2.64585 -13.12657,-2.64585 -6.56329,0 -13.12658,0.791992 -13.12658,7.93755 0,6.481369 7.58609,7.40838 14.14938,7.40838 7.65717,0 7.65717,4.497945 0,4.497945 -5.46941,0 -10.93877,-2.64585 -10.93877,-2.64585 -2.95559,-1.170282 -5.39838,3.968775 -2.11673,5.2917 0,0 5.46941,2.64585 12.0327,2.64585 6.56329,0 14.22049,-1.573334 14.22049,-7.93755 0,-6.138722 -8.75108,-7.143795 -15.31437,-7.143795 -7.65718,0 -7.65718,-4.76253 0,-4.76253 6.56328,0 12.03273,2.11668 12.03273,2.11668 3.28165,1.322925 5.46942,-3.439604 2.18776,-4.76253 z"
       id="path2356"
       sodipodi:nodetypes="cscccscscccccc" />
    <path
       style="fill:#006799;stroke-width:0.265099"
       d="m 134.93728,32.279369 v 9.52506 c 0,17.198025 39.68775,17.198025 39.68775,0 v -9.52506 c 0,-3.968776 -6.61463,-3.968774 -6.61463,0 0,2.29307 0,6.87921 0,6.87921 0,11.906325 -26.4585,11.906325 -26.4585,0 v -6.87921 c 0,-3.968775 -6.61462,-3.968775 -6.61462,0 z"
       id="path2358"
       sodipodi:nodetypes="cccsscccc" />
    <path
       style="fill:none;fill-opacity:1;stroke-width:0.227412"
       d="m 150.40406,34.936729 -2.15587,-0.8871 -2.15588,2.12903 c 0,0 -1.43724,-1.24193 -1.69856,-0.53225 -0.26131,0.70967 -0.0653,4.25806 -0.78394,4.34677 -0.71864,0.0887 0.26131,3.37097 0.26131,3.37097 0,0 0.4573,2.12903 0.78395,2.12903 0.32665,0 1.89455,-1.33064 2.41719,0.70968 0.52264,2.04032 0.13066,2.12903 2.41719,1.95161 2.28653,-0.17742 1.82922,-0.17742 2.6785,0.53226 0.84928,0.70968 3.07048,1.95161 4.63838,0.97581 1.56791,-0.97581 -2.28652,-2.83871 1.89456,-1.7742 4.18108,1.06452 2.93983,0.35484 4.11575,-0.79838 1.17592,-1.15323 1.5679,-1.86291 2.41719,-2.66129 0.84928,-0.79839 0.71863,-0.17742 0.26132,-2.83872 -0.45731,-2.66129 0.65329,-4.52419 -1.50259,-4.6129 -2.15585,-0.0887 -2.93981,1.50807 -4.05041,0.17742 -1.1106,-1.33064 -0.45731,-2.30645 -2.74384,-1.95161 -2.28652,0.35484 -3.72377,0.17742 -4.63839,-0.26613 -0.9146,-0.44355 -1.63322,-0.62097 -2.15586,0 z"
       id="path2847" />
    <path
       style="fill:#803300;fill-opacity:1;stroke-width:0.216372"
       d="m 183.8855,38.893994 h 19.84387 l -2.64585,10.583399 h -14.55217 z"
       id="path7368" />
    <path
       style="fill:#006799;fill-opacity:1;stroke:none;stroke-width:0;stroke-dasharray:none"
       d="m 201.08352,5.8208699 c 0,-3.968811 6.61463,-3.969363 6.61463,0 V 41.539844 c 0,2.64585 -2.38127,13.22925 -13.75842,13.22925 -11.37715,0 -14.02301,-9.260475 -14.02301,-13.22925 l 1e-5,-9.260475 c 0,-3.968775 6.61463,-3.968775 6.61462,0 l -1e-5,6.614625 c -1e-5,5.2917 1.32294,9.260475 7.40839,9.260475 5.82087,0 7.14379,-4.448953 7.14379,-9.260475 z"
       id="path5870"
       sodipodi:nodetypes="ssszsssssss" />
    <path
       style="fill:none;fill-opacity:1;stroke:none;stroke-width:0;stroke-dasharray:none"
       d="m 58.370318,34.77132 -2.838727,4.435511 5.854874,-0.08871 z"
       id="path7546" />
    <path
       style="fill:#006799;stroke-width:0.314658"
       d="m 242.62363,8.7313048 c 0,0 -6.66596,-6.0854549 -13.22925,-6.0854549 -6.56329,0 -16.40427,2.64585 -16.40427,15.8751001 0,11.906324 9.31181,12.964664 15.8751,12.964664 10.5834,0 10.5834,16.139685 0,16.139685 -6.08546,0 -10.5834,-3.968775 -10.5834,-3.968775 -3.17502,-2.381265 -7.1438,3.439605 -3.60178,5.681615 0,0 6.82813,4.901785 13.39142,4.901785 6.56329,0 15.34593,-1.322925 15.34593,-14.552175 0,-11.906325 -8.78264,-14.81676 -15.34593,-14.81676 -10.5834,0 -10.5834,-15.6105142 0,-15.6105142 6.61462,0 10.05423,3.9687752 10.05423,3.9687752 2.64585,2.64585 7.14379,-1.852095 4.49795,-4.4979452 z"
       id="path2356-1"
       sodipodi:nodetypes="cscccscsccccc" />
    <path
       style="fill:#ffccaa;fill-opacity:1;stroke-width:0.265"
       d="m 189.1772,40.216919 3.96878,1e-6 c 1.32293,0 1.32293,2.645849 0,2.645849 l -3.96878,-10e-7 c -1.32292,0 -1.32292,-2.645849 0,-2.645849 z"
       id="path10169"
       sodipodi:nodetypes="sssss" />
    <ellipse
       style="fill:#99ff76;fill-opacity:1;stroke-width:0.283297"
       id="path976"
       cx="154.78116"
       cy="34.92522"
       rx="11.906324"
       ry="10.5834" />
    <path
       style="fill:#ff9955;fill-opacity:1;stroke-width:0.299295"
       d="m 146.18453,26.156113 h 16.61126 c 2.21484,0 2.21484,6.047659 0,6.047659 h -16.61126 c -2.21484,0 -2.21484,-6.047659 0,-6.047659 z"
       id="path10951"
       sodipodi:nodetypes="sssss" />
    <path
       style="fill:#fff6d5;fill-opacity:1;stroke-width:0.260373"
       d="m 146.08133,26.760879 c -1.11748,0 -1.11748,1.511915 0,1.511915 h 16.76228 c 1.11749,0 1.11749,-1.511915 0,-1.511915 z"
       id="path11076"
       sodipodi:nodetypes="sssss" />
    <path
       style="fill:#ff9955;fill-opacity:1;stroke-width:0.299295"
       d="m 144.74488,30.087092 h 16.61126 c 2.21486,0 2.21486,6.047658 0,6.047658 h -16.61126 c -2.21483,0 -2.21483,-6.047658 0,-6.047658 z"
       id="path10951-1"
       sodipodi:nodetypes="sssss" />
    <path
       style="fill:#fff6d5;fill-opacity:1;stroke-width:0.260373"
       d="m 144.6417,30.691858 c -1.11749,0 -1.11749,1.511914 0,1.511914 h 16.76227 c 1.11749,0 1.11749,-1.511914 0,-1.511914 z"
       id="path11076-5"
       sodipodi:nodetypes="sssss" />
    <path
       style="fill:#ff9955;fill-opacity:1;stroke-width:0.299295"
       d="m 147.43037,33.413304 h 16.61127 c 2.21484,0 2.21484,6.047657 0,6.047657 h -16.61127 c -2.21483,0 -2.21483,-6.047657 0,-6.047657 z"
       id="path10951-4"
       sodipodi:nodetypes="sssss" />
    <path
       style="fill:#fff6d5;fill-opacity:1;stroke-width:0.260373"
       d="m 147.32718,34.01807 c -1.11748,0 -1.11748,1.511914 0,1.511914 h 16.76228 c 1.11749,0 1.11749,-1.511914 0,-1.511914 z"
       id="path11076-4"
       sodipodi:nodetypes="sssss" />
    <path
       style="fill:#803300;fill-opacity:1;stroke-width:0.259197"
       d="m 153.93646,26.760879 h -5.5371 c -3.32225,0 -3.32225,7.559573 0,7.559573 h 5.5371 c 3.32225,0 3.32225,-7.559573 0,-7.559573 z"
       id="path11177"
       sodipodi:nodetypes="sssss" />
    <path
       style="fill:#ffccaa;fill-opacity:1;stroke-width:0.259197"
       d="m 148.39936,27.668028 h 3.32225 c 0.73828,0 0.73828,3.02383 0,3.02383 h -3.32225 c -0.73827,0 -0.73827,-3.02383 0,-3.02383 z"
       id="path11179"
       sodipodi:nodetypes="sssss" />
  </g>
</svg>
